<mxfile host="app.diagrams.net" agent="Mozilla/5.0 (Windows NT 10.0; Win64; x64) AppleWebKit/537.36 (KHTML, like Gecko) Chrome/127.0.0.0 Safari/537.36 OPR/113.0.0.0" version="24.8.3">
  <diagram name="Página-1" id="75zkN8Q7itRNkA7RJZJ-">
    <mxGraphModel dx="753" dy="470" grid="1" gridSize="10" guides="1" tooltips="1" connect="1" arrows="1" fold="1" page="1" pageScale="1" pageWidth="827" pageHeight="1169" math="0" shadow="0">
      <root>
        <mxCell id="0" />
        <mxCell id="1" parent="0" />
        <mxCell id="gzxdwDHiQZn5wyyQ_uFq-4" value="" style="edgeStyle=orthogonalEdgeStyle;rounded=0;orthogonalLoop=1;jettySize=auto;html=1;" edge="1" parent="1" source="gzxdwDHiQZn5wyyQ_uFq-1" target="gzxdwDHiQZn5wyyQ_uFq-3">
          <mxGeometry relative="1" as="geometry" />
        </mxCell>
        <mxCell id="gzxdwDHiQZn5wyyQ_uFq-1" value="Inicio" style="ellipse;whiteSpace=wrap;html=1;" vertex="1" parent="1">
          <mxGeometry x="210" y="30" width="60" height="30" as="geometry" />
        </mxCell>
        <mxCell id="gzxdwDHiQZn5wyyQ_uFq-37" value="" style="edgeStyle=orthogonalEdgeStyle;rounded=0;orthogonalLoop=1;jettySize=auto;html=1;" edge="1" parent="1" source="gzxdwDHiQZn5wyyQ_uFq-3" target="gzxdwDHiQZn5wyyQ_uFq-36">
          <mxGeometry relative="1" as="geometry" />
        </mxCell>
        <mxCell id="gzxdwDHiQZn5wyyQ_uFq-3" value="displays 7 segmentos contam indefinidamente&amp;nbsp;de 0 a 99 ou de 99 a 0&amp;nbsp;&lt;span style=&quot;background-color: initial;&quot;&gt;com passo e sentido de contagem definido&lt;/span&gt;" style="whiteSpace=wrap;html=1;" vertex="1" parent="1">
          <mxGeometry x="135" y="100" width="210" height="65" as="geometry" />
        </mxCell>
        <mxCell id="gzxdwDHiQZn5wyyQ_uFq-8" value="" style="edgeStyle=orthogonalEdgeStyle;rounded=0;orthogonalLoop=1;jettySize=auto;html=1;" edge="1" parent="1" source="gzxdwDHiQZn5wyyQ_uFq-5" target="gzxdwDHiQZn5wyyQ_uFq-7">
          <mxGeometry relative="1" as="geometry" />
        </mxCell>
        <mxCell id="gzxdwDHiQZn5wyyQ_uFq-9" value="SIM" style="edgeLabel;html=1;align=center;verticalAlign=middle;resizable=0;points=[];" vertex="1" connectable="0" parent="gzxdwDHiQZn5wyyQ_uFq-8">
          <mxGeometry x="-0.1358" relative="1" as="geometry">
            <mxPoint as="offset" />
          </mxGeometry>
        </mxCell>
        <mxCell id="gzxdwDHiQZn5wyyQ_uFq-16" value="" style="edgeStyle=orthogonalEdgeStyle;rounded=0;orthogonalLoop=1;jettySize=auto;html=1;" edge="1" parent="1" source="gzxdwDHiQZn5wyyQ_uFq-5" target="gzxdwDHiQZn5wyyQ_uFq-15">
          <mxGeometry relative="1" as="geometry" />
        </mxCell>
        <mxCell id="gzxdwDHiQZn5wyyQ_uFq-17" value="NÃO" style="edgeLabel;html=1;align=center;verticalAlign=middle;resizable=0;points=[];" vertex="1" connectable="0" parent="gzxdwDHiQZn5wyyQ_uFq-16">
          <mxGeometry x="-0.0435" y="3" relative="1" as="geometry">
            <mxPoint y="1" as="offset" />
          </mxGeometry>
        </mxCell>
        <mxCell id="gzxdwDHiQZn5wyyQ_uFq-5" value="USR_SW1 pressionado ?" style="rhombus;whiteSpace=wrap;html=1;" vertex="1" parent="1">
          <mxGeometry x="145" y="340" width="190" height="62.5" as="geometry" />
        </mxCell>
        <mxCell id="gzxdwDHiQZn5wyyQ_uFq-33" style="edgeStyle=orthogonalEdgeStyle;rounded=0;orthogonalLoop=1;jettySize=auto;html=1;exitX=0.5;exitY=0;exitDx=0;exitDy=0;entryX=1;entryY=0.75;entryDx=0;entryDy=0;" edge="1" parent="1" source="gzxdwDHiQZn5wyyQ_uFq-7" target="gzxdwDHiQZn5wyyQ_uFq-3">
          <mxGeometry relative="1" as="geometry" />
        </mxCell>
        <mxCell id="gzxdwDHiQZn5wyyQ_uFq-7" value="Incrementa o passo atual em 1 ou o define para 1 caso passo &amp;gt; 9" style="whiteSpace=wrap;html=1;" vertex="1" parent="1">
          <mxGeometry x="405" y="341.25" width="120" height="60" as="geometry" />
        </mxCell>
        <mxCell id="gzxdwDHiQZn5wyyQ_uFq-32" style="edgeStyle=orthogonalEdgeStyle;rounded=0;orthogonalLoop=1;jettySize=auto;html=1;exitX=1;exitY=0.5;exitDx=0;exitDy=0;" edge="1" parent="1" source="gzxdwDHiQZn5wyyQ_uFq-15" target="gzxdwDHiQZn5wyyQ_uFq-21">
          <mxGeometry relative="1" as="geometry" />
        </mxCell>
        <mxCell id="gzxdwDHiQZn5wyyQ_uFq-35" value="SIM" style="edgeLabel;html=1;align=center;verticalAlign=middle;resizable=0;points=[];" vertex="1" connectable="0" parent="gzxdwDHiQZn5wyyQ_uFq-32">
          <mxGeometry x="-0.1579" y="-1" relative="1" as="geometry">
            <mxPoint as="offset" />
          </mxGeometry>
        </mxCell>
        <mxCell id="gzxdwDHiQZn5wyyQ_uFq-39" style="edgeStyle=orthogonalEdgeStyle;rounded=0;orthogonalLoop=1;jettySize=auto;html=1;exitX=0;exitY=0.5;exitDx=0;exitDy=0;entryX=0;entryY=0.5;entryDx=0;entryDy=0;" edge="1" parent="1" source="gzxdwDHiQZn5wyyQ_uFq-15" target="gzxdwDHiQZn5wyyQ_uFq-3">
          <mxGeometry relative="1" as="geometry">
            <Array as="points">
              <mxPoint x="70" y="491" />
              <mxPoint x="70" y="133" />
            </Array>
          </mxGeometry>
        </mxCell>
        <mxCell id="gzxdwDHiQZn5wyyQ_uFq-40" value="NÃO" style="edgeLabel;html=1;align=center;verticalAlign=middle;resizable=0;points=[];" vertex="1" connectable="0" parent="gzxdwDHiQZn5wyyQ_uFq-39">
          <mxGeometry x="0.0397" relative="1" as="geometry">
            <mxPoint as="offset" />
          </mxGeometry>
        </mxCell>
        <mxCell id="gzxdwDHiQZn5wyyQ_uFq-15" value="USR_SW2 pressionado ?" style="rhombus;whiteSpace=wrap;html=1;" vertex="1" parent="1">
          <mxGeometry x="145" y="460" width="190" height="62.5" as="geometry" />
        </mxCell>
        <mxCell id="gzxdwDHiQZn5wyyQ_uFq-34" style="edgeStyle=orthogonalEdgeStyle;rounded=0;orthogonalLoop=1;jettySize=auto;html=1;exitX=0.5;exitY=0;exitDx=0;exitDy=0;entryX=1;entryY=0.25;entryDx=0;entryDy=0;" edge="1" parent="1" source="gzxdwDHiQZn5wyyQ_uFq-21" target="gzxdwDHiQZn5wyyQ_uFq-3">
          <mxGeometry relative="1" as="geometry" />
        </mxCell>
        <mxCell id="gzxdwDHiQZn5wyyQ_uFq-21" value="altera o sentido atual da contagem" style="whiteSpace=wrap;html=1;" vertex="1" parent="1">
          <mxGeometry x="435" y="458.75" width="210" height="65" as="geometry" />
        </mxCell>
        <mxCell id="gzxdwDHiQZn5wyyQ_uFq-38" style="edgeStyle=orthogonalEdgeStyle;rounded=0;orthogonalLoop=1;jettySize=auto;html=1;exitX=0.5;exitY=1;exitDx=0;exitDy=0;entryX=0.5;entryY=0;entryDx=0;entryDy=0;" edge="1" parent="1" source="gzxdwDHiQZn5wyyQ_uFq-36" target="gzxdwDHiQZn5wyyQ_uFq-5">
          <mxGeometry relative="1" as="geometry" />
        </mxCell>
        <mxCell id="gzxdwDHiQZn5wyyQ_uFq-36" value="&lt;div&gt;os LEDs de LED1 a LED8 mostram a contagem em formato binário, sendo o LED mais a esquerda o MS&lt;b&gt;B&lt;/b&gt; e o LED mais a direita o LSB.&lt;/div&gt;&lt;div&gt;&lt;br&gt;&lt;/div&gt;" style="whiteSpace=wrap;html=1;" vertex="1" parent="1">
          <mxGeometry x="120" y="210" width="240" height="72.5" as="geometry" />
        </mxCell>
      </root>
    </mxGraphModel>
  </diagram>
</mxfile>
